<?xml version="1.0" encoding="utf-8" ?>
<svg xmlns="http://www.w3.org/2000/svg" xmlns:cc="http://creativecommons.org/ns" xmlns:dc="http://purl.org/dc/elements/1.1/" xmlns:ev="http://www.w3.org/2001/xml-events" xmlns:inkscape="http://www.inkscape.org/namespaces/inkscape" xmlns:rdf="http://www.w3.org/1999/02/22-rdf-syntax-ns" xmlns:sodipodi="http://sodipodi.sourceforge.net/DTD/sodipodi-0.dtd" xmlns:xlink="http://www.w3.org/1999/xlink" baseProfile="tiny" height="52.91666667cm" version="1.2" viewBox="0 0 2000.0 2000.0" width="52.91666667cm">
  <metadata>
    <rdf:RDF>
      <cc:Work>
        <dc:format>image/svg+xml</dc:format>
        <dc:source>vpype read g1.svg linemerge linesort write clean.svg
</dc:source>
        <dc:date>2025-12-27T15:13:09.876762</dc:date>
      </cc:Work>
    </rdf:RDF>
  </metadata>
  <defs/>
  <g fill="none" id="layer1" inkscape:groupmode="layer" inkscape:label="1" stroke="#0000ff" style="display:inline">
    <polygon points="0.0,0.0 2000.0,0.0 2000.0,2000.0 0.0,2000.0"/>
    <polygon points="929.0015,660.6584 835.8334,801.6352 861.1198,990.9004 1008.8578,1119.6971 1182.8286,1128.0581 1258.959,1060.993 1239.3553,1020.1257 1215.7348,1080.9721 1186.3861,1218.7723 1079.6026,1351.5198 916.1285,1412.1602 841.2384,1336.9522 875.4016,1179.7662 975.229,1024.3706 1080.142,896.322 1106.5155,827.6075 1066.3198,822.6977 1036.2811,810.3568 1035.6776,698.2082 1010.1096,614.36"/>
    <polygon points="923.1785,669.4695 837.4138,813.4643 870.3534,998.9502 1019.731,1120.2197 1187.5867,1123.8665 1257.7338,1058.4387 1237.879,1023.9286 1213.9005,1089.5846 1179.7121,1227.069 1069.3855,1355.3098 911.4478,1407.4597 843.3736,1327.1281 881.6409,1170.054 981.7861,1016.3676 1081.7904,892.0274 1104.0032,827.3006 1064.4424,821.9264 1036.2434,803.3475 1034.0796,692.9677 1005.0403,617.2537"/>
    <polygon points="917.8182,678.4692 839.4726,825.0572 879.6895,1006.5295 1030.222,1120.4476 1191.9709,1119.7773 1256.4929,1056.2819 1236.3803,1028.0321 1211.7637,1098.1774 1172.8167,1235.0841 1059.5144,1358.5692 907.1932,1402.4389 845.7653,1317.311 887.8999,1160.4486 988.0363,1008.5963 1083.1787,887.982 1101.5307,826.9647 1062.6799,820.7653 1036.1081,796.4487 1032.2647,688.2355 999.924,620.5172"/>
    <polygon points="912.9216,687.6309 841.9861,836.3992 889.0978,1013.6494 1040.3313,1120.4057 1196.0035,1115.8088 1255.2358,1054.5163 1234.8418,1032.4162 1209.3295,1106.734 1165.7353,1242.8019 1049.9943,1361.311 903.354,1397.1184 848.3987,1307.5071 894.1585,1150.9578 993.9827,1001.0579 1084.3257,884.1684 1099.1025,826.5773 1061.0192,819.2455 1035.8679,789.6854 1030.2434,684.0031 994.7924,624.1392"/>
    <polygon points="908.4881,696.9289 844.9306,847.4773 898.5499,1020.3217 1050.0608,1120.1184 1199.7056,1111.978 1253.9612,1053.135 1233.2473,1037.0611 1206.6049,1115.2383 1158.5015,1250.2087 1040.8293,1363.549 899.9193,1391.5177 851.2587,1297.7227 900.3975,1141.5891 999.6292,993.7523 1085.2492,880.5689 1096.7223,826.119 1059.4473,817.398 1035.5164,783.0803 1028.0277,680.2617 989.6754,628.1074"/>
    <polygon points="904.5158,706.3382 848.2818,858.2801 908.0193,1026.559 1059.4136,1119.6096 1203.0965,1108.3003 1252.6666,1052.1304 1231.5821,1041.9471 1203.5984,1123.6739 1151.147,1257.2925 1032.0224,1365.297 896.878,1385.6555 854.3299,1287.9644 906.5995,1132.3493 1004.9804,986.6784 1085.9663,877.1658 1094.3926,825.574 1057.9516,815.2531 1035.0484,776.6541 1025.6307,677.002 984.6012,632.4087"/>
    <polygon points="901.0012,715.8346 852.0154,868.7975 917.4815,1032.3746 1068.3938,1118.9028 1206.1947,1104.7897 1251.3488,1051.4939 1229.8331,1047.0551 1200.3202,1132.0251 1143.7017,1264.0428 1023.5759,1366.5695 894.2187,1379.5498 857.5967,1278.2384 912.7483,1123.2449 1010.042,979.8338 1086.4929,873.9413 1092.1151,824.9289 1056.5201,812.8407 1034.4597,770.4259 1023.0663,674.2149 979.5959,637.0293"/>
    <polygon points="897.9396,725.3948 856.107,879.0211 926.9135,1037.7826 1077.0063,1118.0207 1209.0168,1101.4587 1250.0041,1051.2165 1227.9886,1052.3657 1196.7815,1140.2762 1136.1938,1270.4507 1015.4911,1367.3807 891.9298,1373.2179 861.0437,1268.5513 918.8291,1114.2817 1014.8202,973.2156 1086.8443,870.8781 1089.8904,824.1734 1055.1413,810.1897 1033.7477,764.4127 1020.3494,671.8908 974.6837,641.9547"/>
    <polygon points="895.325,734.9964 860.5324,888.9437 936.2943,1042.7975 1085.257,1116.9856 1211.5785,1098.3186 1248.6281,1051.2883 1226.0381,1057.8601 1192.9948,1148.4121 1128.6499,1276.5088 1007.7685,1367.7455 889.9995,1366.6762 864.6553,1258.9095 924.8286,1105.465 1019.3217,966.8195 1087.0347,867.959 1087.7186,823.2994 1053.8042,807.3287 1032.9103,758.6301 1017.4953,670.0198 969.8872,647.1697"/>
    <polygon points="893.1505,744.6181 865.2675,898.5596 945.6044,1047.4343 1093.1521,1115.8189 1213.8941,1095.3792 1247.2162,1051.6991 1223.9729,1063.5196 1188.9733,1156.4182 1121.0948,1282.2111 1000.4079,1367.6787 888.4154,1359.9408 868.4161,1249.3192 930.7344,1096.7997 1023.5538,960.6407 1087.0774,865.1678 1085.5989,822.3012 1052.4984,804.285 1031.9468,753.0919 1014.5198,668.5917 965.2271,652.6588"/>
    <polygon points="891.4078,754.2394 870.2886,907.8642 954.8262,1051.7083 1100.6985,1114.5414 1215.9767,1092.6492 1245.7635,1052.4378 1221.7855,1069.3258 1184.7308,1164.2802 1113.5519,1287.5528 993.4084,1367.1951 887.1655,1353.0269 872.311,1239.7867 936.5356,1088.2898 1027.524,954.6736 1086.985,862.4886 1083.5301,821.1752 1051.2139,801.0854 1030.8576,747.8107 1011.439,667.5959 960.7223,658.4063"/>
    <polygon points="890.0878,763.841 875.5722,916.8545 963.9432,1055.6354 1107.9033,1113.1732 1217.8384,1090.136 1244.2649,1053.4933 1219.4695,1075.2604 1180.2822,1171.9848 1106.0429,1292.5305 986.7682,1366.3096 886.2371,1345.9494 876.325,1230.3182 942.2224,1079.9387 1031.2403,948.9121 1086.7691,859.9065 1081.5104,819.9196 1049.9416,797.7558 1029.644,742.7972 1008.2692,667.0215 956.3901,664.3959"/>
    <polygon points="889.1806,773.4043 881.0954,925.5283 972.9407,1059.2315 1114.7743,1111.7333 1219.4901,1087.8458 1242.7152,1054.8538 1217.0203,1081.3057 1175.6422,1179.5189 1098.5882,1297.1417 980.485,1365.0371 885.6176,1338.7225 880.4436,1220.9195 947.786,1071.7496 1034.7109,943.3492 1086.4404,857.4074 1079.5373,818.5344 1048.673,794.3209 1028.3081,738.0613 1005.0268,666.8574 952.2462,670.6112"/>
    <polygon points="888.6753,782.9121 886.8357,933.8847 981.8053,1062.5129 1121.319,1110.2404 1220.9416,1085.7838 1241.1093,1056.507 1214.4342,1087.444 1170.8263,1186.8703 1091.2068,1301.3851 974.5558,1363.3924 885.2942,1331.3598 884.6525,1211.5963 953.2188,1063.7246 1037.944,937.9779 1086.009,854.9778 1077.6083,817.021 1047.4002,790.8046 1026.853,733.611 1001.728,667.092 948.3046,677.0358"/>
    <polygon points="888.5603,792.3479 892.7713,941.924 990.5249,1065.4958 1127.5454,1108.7118 1222.2021,1083.954 1239.4421,1058.4406 1211.7087,1093.6581 1165.8501,1194.0275 1083.9161,1305.2606 968.977,1361.3904 885.2541,1323.8746 888.9379,1202.3544 958.5141,1055.8654 1040.948,932.7904 1085.4839,852.6055 1075.7203,815.3825 1046.116,787.23 1025.2827,729.4536 998.389,667.7135 944.5778,683.653"/>
    <polygon points="888.8235,801.6964 898.8809,949.6472 999.0887,1068.1968 1133.4615,1107.1645 1223.2796,1082.3594 1237.7087,1060.6417 1208.8425,1099.9312 1160.7292,1200.9795 1076.7324,1308.7687 963.7443,1359.0456 885.4843,1316.2796 893.2864,1193.1988 963.6663,1048.1732 1043.7315,927.7788 1084.8737,850.2791 1073.87,813.623 1044.8139,783.619 1023.6018,725.5948 995.0258,668.7097 941.0767,690.4465"/>
    <polygon points="889.4521,810.9433 905.1439,957.0566 1007.487,1070.6323 1139.0751,1105.6141 1224.1814,1081.0021 1235.9046,1063.0973 1205.8355,1106.2467 1155.4794,1207.7164 1069.6707,1311.911 958.853,1356.3728 885.972,1308.587 897.6852,1184.1347 968.6703,1040.6485 1046.3029,922.9351 1084.186,847.9881 1072.054,811.7477 1043.4882,779.9925 1021.8158,722.0395 991.654,670.0683 937.8109,697.3996"/>
    <polygon points="890.4328,820.0754 911.5403,964.1551 1015.7112,1072.8187 1144.3943,1104.0759 1224.9141,1079.883 1234.0253,1065.7941 1202.6882,1112.5886 1150.1164,1214.2285 1062.7446,1314.6899 954.298,1353.3861 886.704,1300.8087 902.1217,1175.1668 973.5224,1033.2915 1048.6706,918.2509 1083.4277,845.723 1070.2687,809.763 1042.1337,776.3704 1019.9307,718.7913 988.2888,671.7765 934.7885,704.4961"/>
    <polygon points="891.7521,829.0804 918.051,970.9465 1023.7539,1074.7722 1149.4268,1102.5638 1225.4836,1079.0025 1232.0667,1068.7188 1199.4025,1118.9411 1144.6557,1220.5074 1055.9666,1317.1084 950.0733,1350.1001 887.6676,1292.9561 906.5843,1166.2996 978.2191,1026.1014 1050.8429,913.7179 1082.6053,843.4755 1068.5102,807.676 1040.746,772.7717 1017.9531,715.8529 984.945,673.8215 932.0162,711.7198"/>
    <polygon points="893.3957,837.947 924.6575,977.4356 1031.6085,1076.5092 1154.1803,1101.0912 1225.895,1078.3597 1230.0252,1071.8577 1195.9808,1125.289 1139.1126,1226.5449 1049.3483,1319.1704 946.173,1346.5286 888.8499,1285.0401 911.0615,1157.5372 982.7581,1019.0774 1052.8281,909.3277 1081.7243,841.2381 1066.775,805.4945 1039.3214,769.2143 1015.8901,713.2259 981.637,676.1901 929.4997,719.0548"/>
    <polygon points="895.3496,846.665 931.3419,983.6277 1039.2692,1078.0456 1158.6625,1099.6705 1226.1532,1077.9533 1227.8974,1075.1971 1192.4265,1131.6175 1133.5023,1232.334 1042.8999,1320.8803 942.5903,1342.6855 890.2382,1277.0712 915.5425,1148.8835 987.1375,1012.2181 1054.6341,905.0721 1080.79,839.0041 1065.0591,803.227 1037.857,765.715 1013.7493,710.9112 978.3784,678.8692 927.2432,726.4856"/>
    <polygon points="897.5991,855.2252 938.0874,989.5289 1046.7313,1079.3972 1162.8806,1098.3132 1226.2622,1077.7811 1225.6805,1078.7234 1188.7438,1137.9123 1127.8397,1237.8682 1036.6305,1322.2431 939.3183,1338.5846 891.8197,1269.0594 920.0172,1140.3419 991.356,1005.5215 1056.2688,900.9429 1079.8068,836.768 1063.359,800.8825 1036.3502,762.2898 1011.5386,708.9086 975.1825,681.8452 925.2499,733.9968"/>
    <polygon points="900.1296,863.6192 944.8776,995.1456 1053.9906,1080.5794 1166.842,1097.0299 1226.2258,1077.84 1223.3719,1082.4227 1184.9373,1144.1595 1122.1391,1243.1416 1030.5485,1323.2644 936.3496,1334.2393 893.582,1261.0146 924.4759,1131.9156 995.4131,998.9853 1057.74,896.932 1078.7788,834.5252 1061.6709,798.4704 1034.7995,758.9535 1009.2663,707.2171 972.0617,685.1047 923.5217,741.5736"/>
    <polygon points="902.9264,871.8396 951.6972,1000.4852 1061.0438,1081.6076 1170.5535,1095.8306 1226.0475,1078.1264 1220.9698,1086.2813 1181.0124,1150.3459 1116.4147,1248.1493 1024.6611,1323.9504 933.6767,1329.6628 895.5129,1252.9459 928.9094,1123.6075 999.3085,992.607 1059.0549,893.0315 1077.7096,832.2718 1059.9915,796.0006 1033.2037,755.7199 1006.941,705.8351 969.0279,688.634 922.0597,749.2014"/>
    <polygon points="905.9746,879.8799 958.5313,1005.5554 1067.8882,1082.4965 1174.0218,1094.7241 1225.7301,1078.6361 1218.4724,1090.2853 1176.975,1156.4586 1110.6801,1252.8868 1018.9745,1324.3074 931.2914,1324.868 897.6002,1244.8622 933.3094,1115.4199 1003.0427,986.3835 1060.2208,889.234 1076.6022,830.0048 1058.3172,793.4831 1031.5623,752.6021 1004.5715,704.76 966.0924,692.4194 920.8639,756.8663"/>
    <polygon points="909.2593,887.7347 965.3661,1010.3642 1074.5215,1083.2607 1177.2536,1093.7186 1225.2765,1079.3642 1215.8789,1094.4211 1172.8316,1162.4854 1104.9485,1257.3506 1013.4943,1324.3424 929.1857,1319.8676 899.832,1236.7721 937.6677,1107.3552 1006.6163,980.3117 1061.2447,885.5322 1075.4594,827.7222 1056.645,790.928 1029.8753,749.612 1002.1665,703.9887 963.2656,696.4474 919.9333,764.5547"/>
    <polygon points="912.766,895.399 972.1883,1014.9202 1080.9423,1083.9143 1180.255,1092.8214 1224.6891,1080.3052 1213.1884,1098.6751 1168.5889,1168.4144 1099.2326,1261.5376 1008.2251,1324.0627 927.3511,1314.6741 902.1967,1228.6835 941.977,1099.4149 1010.0306,974.388 1062.1331,881.9191 1074.2835,825.4226 1054.9719,788.3458 1028.1435,746.7605 999.7352,703.5174 960.5574,700.7041 919.2662,772.2534"/>
    <polygon points="916.4799,902.8691 978.9855,1019.2324 1087.1494,1084.471 1183.0322,1092.0391 1223.9703,1081.4533 1210.4009,1103.0338 1164.2541,1174.2346 1093.5446,1265.4454 1003.1704,1323.476 925.779,1309.2997 904.683,1220.6043 946.2303,1091.6008 1013.287,968.6086 1062.8925,878.3881 1073.0765,823.1053 1053.2952,785.7467 1026.368,744.0579 997.2866,703.3415 957.9767,705.1759 918.8599,779.95"/>
    <polygon points="920.3865,910.1418 985.7457,1023.3098 1093.142,1084.944 1185.5908,1091.3775 1223.1223,1082.8021 1207.5168,1107.4839 1159.8348,1179.9353 1087.8962,1269.0723 998.3335,1322.5899 924.4605,1303.7563 907.2797,1212.5415 950.4214,1083.9138 1016.3873,962.9699 1063.529,874.9329 1071.8402,820.7704 1051.6122,783.1411 1024.5504,741.5131 994.8297,703.4562 955.5319,709.8493 918.7111,787.6324"/>
    <polygon points="924.4715,917.2148 992.458,1027.1619 1098.9201,1085.3461 1187.9365,1090.8416 1222.1469,1084.3447 1204.5366,1112.0121 1155.3386,1185.5064 1082.2986,1272.4172 993.7164,1321.4128 923.3867,1298.0553 909.9761,1204.5023 954.5443,1076.3548 1019.3337,957.4676 1064.0484,871.5477 1070.5759,818.4185 1049.9208,780.5394 1022.6929,739.1345 992.3736,703.8558 953.2306,714.7107 918.8159,795.2893"/>
    <polygon points="928.7206,924.0865 999.1119,1030.7984 1104.4836,1085.6896 1190.0747,1090.4355 1221.0463,1086.0739 1201.4618,1116.6055 1150.7736,1190.9383 1076.7622,1275.4794 989.3208,1319.953 922.5485,1292.2083 912.7616,1196.4931 958.5936,1068.9243 1022.1283,952.0976 1064.4564,868.2272 1069.285,816.0511 1048.2191,777.9516 1020.7979,736.9296 989.9272,704.5342 951.0796,719.7469 919.1693,802.9096"/>
    <polygon points="933.1201,930.756 1005.6976,1034.2291 1109.833,1085.9862 1192.0104,1090.1629 1219.8222,1087.9822 1198.2937,1121.2513 1146.1479,1196.2221 1071.2971,1278.259 985.1475,1318.2189 921.9368,1286.2261 915.6261,1188.52 962.5645,1061.6226 1024.7738,946.8557 1064.7582,864.9661 1067.9684,813.6699 1046.5053,775.3877 1018.8685,734.9049 987.4992,705.485 949.0853,724.9446 919.7663,810.4832"/>
    <polygon points="937.6562,937.2231 1012.2061,1037.464 1114.9691,1086.2473 1193.7486,1090.0266 1218.4767,1090.0615 1195.0346,1125.937 1141.4697,1201.3494 1065.9127,1280.7565 981.1969,1316.2194 921.5424,1280.1194 918.5597,1180.5889 966.4526,1054.4497 1027.2729,941.7376 1064.9588,861.7601 1066.6269,811.2772 1044.778,772.8575 1016.9079,733.0661 985.0983,706.7012 947.2528,730.2907 920.6009,818.0002"/>
    <polygon points="942.3155,943.4881 1018.6288,1040.5129 1119.8929,1086.4835 1195.2941,1090.0288 1217.0116,1092.3037 1191.6868,1130.6503 1136.7474,1206.3124 1060.618,1282.9729 977.4685,1313.9631 921.356,1273.8988 921.553,1172.7052 970.2539,1047.4052 1029.6282,936.739 1065.0631,858.6049 1065.2614,808.876 1043.0361,770.3706 1014.9198,731.4183 982.733,708.1756 945.5871,735.7726 921.6669,825.4517"/>
    <polygon points="947.0851,949.5522 1024.9578,1043.3861 1124.6054,1086.7051 1196.6515,1090.171 1215.4288,1094.7004 1188.2531,1135.3791 1131.9893,1211.1037 1055.4212,1284.9098 973.9614,1311.4591 921.3683,1267.5742 924.5968,1164.874 973.9648,1040.4886 1031.8429,931.8556 1065.0755,855.4969 1063.8723,806.4694 1041.2788,767.9361 1012.9081,729.9657 980.4114,709.9004 944.0921,741.3775 922.9574,832.8289"/>
    <polygon points="951.9522,955.4168 1031.1857,1046.0935 1129.1083,1086.9217 1197.8251,1090.4541 1213.7303,1097.2428 1184.7366,1140.1119 1127.2038,1215.7165 1050.3299,1286.5692 970.6744,1308.7163 921.5701,1261.1554 927.6823,1157.0999 977.5821,1033.699 1033.92,927.0832 1065.0003,852.4327 1062.4602,804.0611 1039.5057,765.5629 1010.8771,728.7116 978.1414,711.8677 942.7711,747.0932 924.4654,840.1241"/>
    <polygon points="956.9043,961.0841 1037.3059,1048.6453 1133.4031,1087.1425 1198.8191,1090.8784 1211.9182,1099.9221 1181.1408,1144.8372 1122.3992,1220.1448 1045.3515,1287.9534 967.6053,1305.7438 921.9521,1254.652 930.8011,1149.3873 981.1033,1027.0355 1035.8625,922.4175 1064.8415,849.4094 1061.0255,801.6549 1037.7164,763.2597 1008.8311,727.6588 975.9308,714.0693 941.627,752.9077 926.1833,847.3299"/>
    <polygon points="961.9294,966.5567 1043.312,1051.0513 1137.4916,1087.3759 1199.6378,1091.4436 1209.9946,1102.7293 1177.4695,1149.5439 1117.5837,1224.3829 1040.4923,1289.0653 964.752,1302.5505 922.5052,1248.0729 933.945,1141.7404 984.5257,1020.4969 1037.6737,917.8545 1064.603,846.4248 1059.5687,799.2552 1035.9111,761.0346 1006.7748,726.8095 973.7868,716.4967 940.6618,758.809 928.1034,854.4396"/>
    <polygon points="967.0158,971.8376 1049.1982,1053.3216 1141.3757,1087.6302 1200.2851,1092.149 1207.9618,1105.6552 1173.7266,1154.2214 1112.7655,1228.4255 1035.7585,1289.9081 962.1116,1299.1457 923.2201,1241.4271 937.1063,1134.1626 987.8475,1014.0817 1039.3567,913.3902 1064.2884,843.4767 1058.0901,796.8664 1034.09,758.8956 1004.7131,726.1649 971.7165,719.1412 939.8769,764.786 930.2175,861.4469"/>
    <polygon points="972.1522,976.9303 1054.9593,1055.4659 1145.0576,1087.9126 1200.7649,1092.9931 1205.8221,1108.6906 1169.9165,1158.8591 1107.9526,1232.2682 1031.1556,1290.4854 959.6809,1295.5383 924.088,1234.7231 940.2776,1126.6576 991.0668,1007.7885 1040.915,909.0206 1063.901,840.5636 1056.5901,794.4933 1032.254,756.8499 1002.6508,725.726 969.7265,721.994 939.2732,770.8273 932.5174,868.3463"/>
    <polygon points="977.3276,981.8388 1060.5904,1057.4938 1148.5393,1088.2301 1201.081,1093.9742 1203.578,1111.8261 1166.0438,1163.4472 1103.1528,1235.9068 1026.6884,1290.8012 957.4563,1291.7373 925.0999,1227.969 943.4519,1119.2283 994.1823,1001.6155 1042.3516,904.742 1063.4441,837.6842 1055.0691,792.1406 1030.4038,754.9047 1000.593,725.4927 967.8232,725.0461 938.8509,776.9222 934.9946,875.1328"/>
    <polygon points="982.5315,986.5672 1066.0872,1059.4149 1151.8231,1088.5891 1201.2371,1095.0899 1201.2321,1115.0524 1162.1131,1167.9759 1098.3737,1239.3377 1022.3614,1290.8597 955.434,1287.7518 926.2469,1221.1727 946.6226,1111.8775 997.1929,995.5609 1043.6699,900.5509 1062.9206,834.8377 1053.5275,789.8133 1028.5406,753.0664 998.5449,725.4648 966.0124,728.2883 938.6099,783.0604 937.6404,881.8019"/>
    <polygon points="987.7538,991.1202 1071.4457,1061.2382 1154.9115,1088.9954 1201.2367,1096.3376 1198.7872,1118.3602 1158.1294,1172.436 1093.623,1242.5578 1018.1785,1290.6655 953.6098,1283.5906 927.5204,1214.3418 949.7832,1104.6077 1000.0977,989.6228 1044.8731,896.4438 1062.3336,832.0237 1051.9658,787.5166 1026.6659,751.3413 996.5116,725.6413 964.2997,731.7116 938.5493,789.2317 940.4461,888.3498"/>
    <polygon points="992.9845,995.5026 1076.6624,1062.9731 1157.8068,1089.4543 1201.0837,1097.714 1196.2461,1121.7399 1154.0977,1176.8186 1088.9077,1245.5645 1014.1429,1290.2233 951.9792,1279.2626 928.9118,1207.4834 952.9279,1097.4211 1002.8962,983.7991 1045.9643,892.4176 1061.6856,829.242 1050.3846,785.2557 1024.7812,749.7351 994.4984,726.0207 962.6903,735.3066 938.6679,795.4266 943.4028,894.7729"/>
    <polygon points="998.2144,999.7195 1081.7339,1064.6281 1160.5116,1089.9705 1200.7813,1099.2156 1193.6118,1125.1823 1150.0234,1181.1153 1084.2349,1248.3557 1010.2577,1289.5383 950.5375,1274.7764 930.4128,1200.6045 956.0509,1090.3197 1005.5879,978.0878 1046.9469,888.4691 1060.9793,826.4928 1048.7844,783.0356 1022.8886,748.2529 992.5104,726.601 961.1889,739.0641 938.9638,801.6357 946.5017,901.0685"/>
    <polygon points="1003.4344,1003.7763 1086.6575,1066.212 1163.0285,1090.5484 1200.3332,1100.8385 1190.8875,1128.6781 1145.9116,1185.3178 1079.6113,1250.9296 1006.5252,1288.6156 949.2797,1270.1406 932.0152,1193.7117 959.1469,1083.3053 1008.1729,972.4866 1047.8239,884.5956 1060.2171,823.7768 1047.1659,780.8617 1020.9899,746.8997 990.5528,727.38 959.7999,742.9748 939.4349,807.8503 949.7337,907.2342"/>
    <polygon points="1008.6358,1007.6785 1091.4307,1067.7331 1165.36,1091.1915 1199.7429,1102.5785 1188.0765,1132.2181 1141.7678,1189.4185 1075.0434,1253.285 1002.9474,1287.461 948.2007,1265.3638 933.7109,1186.8113 962.2111,1076.3791 1010.651,966.9934 1048.5985,880.7944 1059.4014,821.0946 1045.5299,778.7391 1019.0876,745.6797 988.6307,728.3547 958.5271,747.0295 940.0786,814.0618 953.09,913.2681"/>
    <polygon points="1013.8105,1011.4319 1096.0513,1069.1992 1167.509,1091.9032 1199.0137,1104.431 1185.1822,1135.7931 1137.5975,1193.4102 1070.5374,1255.421 999.5257,1286.0799 947.2951,1260.4543 935.4922,1179.9093 965.2386,1069.5425 1013.0228,961.606 1049.2737,877.0632 1058.5344,818.4473 1043.8773,776.6729 1017.1841,744.5969 986.7493,729.5218 957.374,751.2191 940.8918,820.2622 956.5616,919.1687"/>
    <polygon points="1018.9505,1015.0424 1100.5174,1070.6182 1169.478,1092.6862 1198.1492,1106.3911 1182.2082,1139.3942 1133.4063,1197.2858 1066.0992,1257.3372 996.2613,1284.4783 946.5574,1255.4202 937.3513,1173.0114 968.2251,1062.7964 1015.2884,956.322 1049.8525,873.3997 1057.6183,815.8364 1042.2089,774.6681 1015.2819,743.6547 984.9133,730.8779 956.3439,755.5343 941.8712,826.4438 960.1397,924.9352"/>
    <polygon points="1024.0485,1018.5159 1104.8274,1071.9975 1171.27,1093.5427 1197.1529,1108.4538 1179.1581,1143.0124 1129.1996,1201.0391 1061.7343,1259.0335 993.1548,1282.6622 945.982,1250.2697 939.2809,1166.1229 971.1665,1056.1418 1017.4487,951.1394 1050.3378,869.802 1056.6553,813.2634 1040.526,772.7298 1013.3838,742.8561 983.1277,732.4189 955.4393,759.9661 943.013,832.5995 963.8153,930.5669"/>
    <polygon points="1029.0971,1021.8585 1108.9801,1073.344 1172.8877,1094.4747 1196.0282,1110.6137 1176.0357,1146.6391 1124.983,1204.6637 1057.4481,1260.5103 990.2065,1280.6376 945.5632,1245.0105 941.2738,1159.2491 974.0592,1049.5791 1019.5043,946.0558 1050.7327,866.2683 1055.6472,810.7301 1038.8296,770.8627 1011.4928,742.2038 981.3972,734.1406 954.6627,764.5057 944.3131,838.7225 967.5799,936.0637"/>
    <polygon points="1034.0898,1025.0763 1112.9743,1074.6647 1174.3339,1095.4834 1194.7787,1112.8653 1172.8449,1150.2656 1120.7621,1208.1541 1053.2455,1261.7682 987.4163,1278.4109 945.2951,1239.6504 943.3229,1152.3947 976.8995,1043.1089 1021.456,941.0691 1051.0398,862.7972 1054.5961,808.2384 1037.1211,769.0715 1009.6119,741.6999 979.7263,736.0384 954.0158,769.1442 945.7673,844.8063 971.4247,941.4259"/>
    <polygon points="1039.0201,1028.1756 1116.8093,1075.9659 1175.6117,1096.5697 1193.4078,1115.2028 1169.5897,1153.8837 1116.5423,1211.505 1049.1312,1262.8084 984.7837,1275.9884 945.1718,1234.1969 945.4214,1145.5644 979.6843,1036.7314 1023.305,936.1771 1051.2621,859.3872 1053.5039,805.7904 1035.4017,767.3608 1007.744,741.346 978.1194,738.1076 953.5003,773.8731 947.3709,850.845 975.3413,946.654"/>
    <polygon points="1043.8819,1031.1625 1120.4844,1077.2536 1176.724,1097.7343 1191.9192,1117.6204 1166.2742,1157.485 1112.3291,1214.7115 1045.1095,1263.6322 982.308,1273.3764 945.1874,1228.6574 947.5628,1138.7623 982.4106,1030.4468 1025.0523,931.3777 1051.4022,856.0374 1052.3725,803.3886 1033.6731,765.7349 1005.8925,741.1436 976.5807,740.3429 953.1172,778.6839 949.119,856.8331 979.3212,951.7491"/>
    <polygon points="1048.6696,1034.0432 1123.9994,1078.5337 1177.6737,1098.9772 1190.3164,1120.1119 1162.9027,1161.0616 1108.1279,1217.769 1041.1844,1264.2412 979.9879,1270.5815 945.3359,1223.0389 949.7408,1131.9926 985.0757,1024.255 1026.6992,926.669 1051.4629,852.7469 1051.2038,801.0352 1031.9368,764.1979 1004.0605,741.0936 975.1142,742.7392 952.8673,783.5682 951.0067,862.7654 983.3563,956.7125"/>
    <polygon points="1053.3777,1036.8238 1127.354,1079.8114 1178.4639,1100.2981 1188.603,1122.6713 1159.4792,1164.6059 1103.9439,1220.6735 1037.3596,1264.6374 977.8222,1267.6101 945.6112,1217.3485 951.9492,1125.259 987.6772,1018.1559 1028.2469,922.0488 1051.4467,849.5149 1049.9996,798.7329 1030.1946,762.7539 1002.2513,741.1964 973.7238,745.291 952.751,788.518 953.0285,868.6371 987.4384,961.5456"/>
    <polygon points="1058.0012,1039.5106 1130.5484,1081.0918 1179.0976,1101.6964 1186.7828,1125.2922 1156.0083,1168.1101 1099.7824,1223.4213 1033.6385,1264.8232 975.809,1264.4687 946.0073,1211.5929 954.1822,1118.565 990.2128,1012.1492 1029.6969,917.5155 1051.3562,846.341 1048.7618,796.4842 1028.4481,761.4065 1000.4684,741.4523 972.413,747.9927 952.7684,793.5255 955.1791,874.4438 991.5596,966.2505"/>
    <polygon points="1062.5354,1042.1094 1133.5827,1082.3796 1179.5779,1103.1712 1184.8594,1127.9683 1152.4942,1171.567 1095.6484,1226.0089 1030.0242,1264.8011 973.9464,1261.164 946.5183,1205.7787 956.4341,1111.9141 992.6805,1006.2346 1031.0506,913.0671 1051.1941,843.225 1047.4922,794.2918 1026.6994,760.1594 998.7149,741.8611 971.1852,750.8385 952.9191,798.5829 957.4529,880.1818 995.7122,970.8293"/>
    <polygon points="1066.9759,1044.6263 1136.4574,1083.6791 1179.908,1104.721 1182.8366,1130.6932 1148.9413,1174.9697 1091.5469,1228.4334 1026.5193,1264.5738 972.2321,1257.7024 947.138,1199.9122 958.6995,1105.3091 995.0787,1000.4116 1032.3096,908.7019 1050.9627,840.1667 1046.1926,792.1586 1024.9503,759.0158 996.9943,742.4222 970.0436,753.8225 953.2024,803.6828 959.8441,885.8472 999.8886,975.2843"/>
    <polygon points="1071.3185,1047.0671 1139.1731,1084.9942 1180.091,1106.3443 1180.7181,1133.4605 1145.3542,1178.3111 1087.4827,1230.6922 1023.1263,1264.1443 970.6638,1254.0905 947.8606,1193.9995 960.9732,1098.753 997.4056,994.6797 1033.4754,904.4185 1050.6646,837.1662 1044.865,790.0871 1023.2031,757.9787 995.3099,743.1347 968.991,756.9388 953.6175,808.8181 962.3469,891.437 1004.0816,979.6182"/>
    <polygon points="935.2846,652.0632 834.7543,789.5862 852.0209,982.3701 997.6035,1118.8548 1177.6726,1132.332 1260.1678,1063.9496 1240.8281,1016.6437 1217.2637,1072.3561 1192.8011,1210.2114 1090.1598,1347.1865 921.2454,1416.519 839.374,1346.7772 869.2042,1189.5771 968.3633,1032.6032 1078.2141,900.8827 1109.0614,827.9115 1068.3258,823.0476 1036.2299,817.4495 1037.0496,703.9656 1015.0979,611.8465"/>
    <polygon points="942.0237,643.7118 834.1985,777.3353 843.0909,973.3503 985.9708,1117.6673 1172.0936,1136.6666 1261.3578,1067.3127 1242.3175,1013.5031 1218.4867,1063.7528 1198.9179,1201.4056 1101.0499,1342.298 926.8089,1420.5138 837.7941,1356.5972 863.0719,1199.4781 961.1885,1041.0617 1075.9861,905.7254 1111.6339,828.2426 1070.4742,822.9444 1036.0993,824.5962 1038.1883,710.2485 1019.9695,609.7221"/>
    <polygon points="949.2128,635.6324 834.1873,764.9021 834.366,963.833 973.9645,1116.1092 1166.0648,1141.0387 1262.5253,1071.0852 1243.8449,1010.7248 1219.4062,1055.1779 1204.6948,1192.3764 1112.2646,1336.8432 932.8287,1424.121 836.5118,1366.4063 857.0297,1209.4606 953.7053,1049.7415 1073.4369,910.8648 1114.2242,828.635 1072.7792,822.3563 1035.9,831.765 1039.0884,717.0654 1024.6866,607.9948"/>
    <polygon points="956.8443,627.854 834.7409,752.3081 825.8842,953.8116 961.5916,1114.155 1159.5582,1145.4233 1263.6648,1075.2689 1245.4327,1008.33 1220.0274,1046.6466 1210.0881,1183.1474 1123.7946,1330.8117 939.3146,1427.3158 835.539,1376.199 851.1039,1219.5155 945.916,1058.6366 1070.5445,916.314 1116.8222,829.1272 1075.2549,821.252 1035.6436,838.921 1039.747,724.4251 1029.2095,606.6708"/>
    <polygon points="964.9087,620.4059 835.8779,739.5766 817.6858,943.2804 948.8615,1111.779 1152.5441,1149.7939 1264.7688,1079.8641 1247.1043,1006.3404 1220.3591,1038.1735 1215.0521,1173.7443 1135.6291,1324.1943 946.2765,1430.0722 834.8867,1385.97 845.3225,1229.6338 937.8246,1067.7402 1067.2864,922.0841 1119.416,829.7624 1077.9157,819.6004 1035.3422,846.0266 1040.1637,732.3364 1033.4962,605.7552"/>
    <polygon points="973.3949,613.3174 837.6156,726.7327 809.8124,932.2353 935.7861,1108.9562 1144.9919,1154.1222 1265.8278,1084.8698 1248.8837,1004.7783 1220.4138,1029.772 1219.5384,1164.195 1147.7562,1316.9831 953.724,1432.3627 834.5648,1395.7142 839.7149,1239.8065 929.437,1077.0439 1063.6394,928.1838 1121.992,830.5884 1080.7762,817.371 1035.009,853.0411 1040.3411,740.8088 1037.5029,605.251"/>
    <polygon points="982.2899,606.6184 839.9694,713.8033 802.3079,920.6736 922.3805,1105.6614 1136.8693,1158.3781 1266.83,1090.2834 1250.7954,1003.6665 1220.2083,1021.4548 1223.4969,1154.5299 1160.1621,1309.1714 961.6668,1434.1584 834.5817,1405.4269 834.3119,1250.0243 920.7608,1086.5389 1059.5797,934.6188 1124.5347,831.6587 1083.8508,814.5344 1034.6572,859.9204 1040.2849,749.852 1041.1838,605.1599"/>
    <polygon points="991.5791,600.3384 842.9529,700.8173 795.2175,908.5938 908.663,1101.8701 1128.1432,1162.53 1267.7611,1096.1004 1252.8641,1003.0287 1219.7638,1013.233 1226.8745,1144.7816 1172.8319,1300.7542 970.1149,1435.4287 834.9441,1415.1035 829.1456,1260.2783 911.806,1096.2154 1055.0832,941.3912 1127.0267,833.0318 1087.1541,811.0622 1034.3008,866.6166 1040.0045,759.4767 1044.4908,605.4813"/>
    <polygon points="1001.2459,594.5073 846.5772,687.8054 788.5883,895.9962 894.6553,1097.5585 1118.7792,1166.5444 1268.6042,1102.3144 1255.1146,1002.8896 1219.107,1005.1162 1229.6162,1134.9852 1185.7488,1291.7284 979.0788,1436.1413 835.6571,1424.7397 824.2496,1270.5593 902.5847,1106.0632 1050.1255,948.4992 1129.4485,834.7721 1090.7008,806.9279 1033.9533,873.0781 1039.5132,769.6943 1047.3738,606.2129"/>
    <polygon points="1011.2722,589.1544 850.8511,674.8003 782.4687,882.8824 880.3829,1092.7033 1108.7418,1170.3862 1269.3397,1108.9171 1257.5709,1003.2747 1218.2699,997.1121 1231.6644,1125.178 1198.8941,1282.0928 988.5692,1436.262 836.7236,1434.3318 819.6589,1280.8584 893.1115,1116.0717 1044.682,955.9358 1131.778,836.9498 1094.5057,802.1065 1033.6282,879.2488 1038.8287,780.5173 1049.7805,607.3501"/>
    <polygon points="1021.6383,584.3089 855.7806,661.8366 776.9083,869.2557 865.8754,1087.2823 1097.9949,1174.0188 1269.9453,1115.8974 1260.2563,1004.2113 1217.2906,989.2263 1232.9589,1115.4 1212.2472,1271.8487 998.5975,1435.7544 838.1446,1443.8761 815.4092,1291.167 883.4037,1126.2305 1038.7281,963.6888 1133.991,839.6414 1098.5835,796.5757 1033.3385,885.0681 1037.9736,791.9594 1051.6567,608.8862"/>
    <polygon points="1032.3229,579.9995 861.3688,648.9509 771.9577,855.1212 851.167,1081.2742 1086.5015,1177.4039 1270.3955,1123.2421 1263.1924,1005.7279 1216.2142,981.4618 1233.4371,1105.6933 1225.7853,1261.0 1009.1761,1434.58 839.9184,1453.3695 811.5377,1301.4761 873.4814,1136.5299 1032.2393,971.7394 1136.0604,842.9297 1102.9493,790.316 1033.0961,890.4703 1036.9754,804.0359 1052.9456,610.812"/>
    <polygon points="1043.3034,576.254 867.6155,636.182 767.6684,840.4853 836.2965,1074.659 1074.2242,1180.5018 1270.6619,1130.9345 1266.3991,1007.8552 1215.0928,973.8191 1233.034,1096.1026 1239.4831,1249.5534 1020.3184,1432.6981 842.0408,1462.809 808.0824,1311.7771 863.3674,1146.9612 1025.1915,980.0617 1137.9565,846.9043 1107.6185,783.3115 1032.9113,895.3841 1035.8679,816.7639 1053.5884,613.1158"/>
    <polygon points="1054.5559,573.0996 874.517,623.5703 764.0925,825.3565 821.3079,1067.4182 1061.1249,1183.2716 1270.7131,1138.9551 1269.8932,1010.6259 1213.9869,966.2953 1231.6821,1086.6748 1253.3127,1237.5193 1032.0393,1430.0652 844.5047,1472.1922 805.082,1322.0611 853.0878,1157.5171 1017.5611,988.6217 1139.6465,851.6612 1112.6069,775.5501 1032.7927,899.7322 1034.6908,830.1625 1053.5239,615.7836"/>
    <polygon points="1066.0552,570.5623 882.066,611.1587 761.2819,809.7446 806.2508,1059.5347 1047.1656,1185.671 1270.5148,1147.2804 1273.6884,1014.0753 1212.9652,958.8844 1229.3114,1077.4591 1267.2432,1224.9116 1044.3553,1426.635 847.2999,1481.517 802.5761,1332.319 842.6719,1168.1932 1009.3256,997.3763 1141.0942,857.3037 1117.9309,767.0248 1032.7461,903.4307 1033.491,844.2535 1052.6885,618.7983"/>
    <polygon points="1077.7754,568.667 890.2512,598.9919 759.2887,793.6613 791.1803,1050.9932 1032.308,1187.6569 1270.0295,1155.883 1277.7939,1018.2419 1212.1063,951.5763 1225.8495,1068.5064 1281.2404,1211.7485 1057.2848,1422.3586 850.413,1490.7821 800.6043,1342.541 832.1525,1178.9879 1000.4633,1006.2719 1142.2599,863.9417 1123.6081,757.7338 1032.7743,906.3887 1032.3226,859.061 1051.016,622.1404"/>
    <polygon points="1089.69,567.437 899.057,587.1166 758.164,777.1201 776.158,1041.7804 1016.514,1189.1853 1269.2173,1164.7307 1282.2136,1023.1676 1211.4986,944.3567 1221.2217,1059.87 1295.2665,1198.0528 1070.8486,1417.1834 853.8267,1499.9865 799.2069,1352.7168 821.5657,1189.9042 990.9542,1015.2439 1143.1002,871.6923 1129.6569,747.6823 1032.8761,908.5071 1031.2483,874.6126 1048.4378,625.7873"/>
    <polygon points="1101.7718,566.894 908.4636,575.582 757.9582,760.1357 761.2522,1031.8849 999.7459,1190.2119 1268.0354,1173.7862 1286.945,1028.8983 1211.2418,937.2069 1215.3511,1051.6045 1309.2796,1183.8528 1085.0705,1411.0536 857.5202,1509.1299 798.4239,1362.8346 810.9514,1200.9502 980.78,1024.2149 1143.567,880.6796 1136.0976,736.8825 1033.0452,909.6783 1030.3394,890.9392 1044.8822,629.7136"/>
    <polygon points="1113.9934,567.0577 918.4465,564.4392 758.7195,742.7249 746.5379,1021.2978 981.9664,1190.6923 1266.4392,1183.0063 1291.9782,1035.4846 1211.4473,930.1029 1208.159,1043.766 1323.2331,1169.1823 1099.9773,1403.9096 861.4686,1518.2132 798.2953,1372.8809 800.3532,1212.1406 969.9248,1033.0935 1143.6079,891.0345 1142.9528,725.3557 1033.2697,909.7852 1029.677,908.0758 1040.2748,633.8906"/>
    <polygon points="1126.3279,567.9454 928.9767,553.7414 760.4943,724.9058 732.0978,1010.0121 963.1387,1190.5823 1264.3822,1192.3412 1297.2941,1042.9826 1212.2395,923.0157 1199.5646,1036.4116 1337.0753,1154.0819 1115.5997,1395.6877 865.6425,1527.2381 798.8604,1382.8397 789.8184,1223.4984 958.3754,1041.7735 1143.1653,902.8946 1150.2476,713.1327 1033.5308,908.7001 1029.3529,926.0617 1034.5379,638.287"/>
    <polygon points="1138.7484,569.5721 940.0201,543.5443 763.3258,706.6979 718.0226,998.0237 943.2268,1189.8389 1261.8168,1201.7337 1302.8633,1051.4541 1213.7564,915.9101 1189.4856,1029.599 1350.7488,1138.5994 1131.9724,1386.3197 870.0081,1536.2078 800.1579,1392.6919 779.3982,1235.0562 946.1221,1050.1314 1142.1756,916.4039 1158.0107,700.256 1033.8015,906.284 1029.4704,944.9413 1027.5905,642.8679"/>
    <polygon points="1151.2291,571.9499 951.5379,533.9058 767.2534,688.1224 704.4111,985.3306 922.1956,1188.4203 1258.695,1211.1181 1308.6441,1060.968 1216.1509,908.7451 1177.8387,1023.3863 1364.1897,1122.7906 1149.1355,1375.7325 874.5269,1545.1274 802.2252,1402.4142 769.1474,1246.8582 933.159,1058.0261 1140.569,931.7121 1166.2751,686.7807 1034.0453,902.3853 1030.1453,964.7643 1019.348,647.5958"/>
    <polygon points="1163.7453,575.0875 963.4862,524.886 772.3122,669.2017 691.3711,971.9335 900.0107,1186.287 1254.9693,1220.4192 1314.581,1071.601 1219.5916,901.4727 1164.5395,1017.8307 1377.3267,1106.7201 1167.1341,1363.8478 879.1555,1554.0041 805.0986,1411.9776 759.1249,1258.9623 919.485,1065.2962 1138.2683,948.9744 1175.0791,672.7768 1034.2145,896.8385 1031.5068,985.5866 1009.7215,652.4297"/>
    <polygon points="1176.2739,578.9901 975.8165,516.5478 778.5317,649.9594 679.0199,957.8355 876.6385,1183.4028 1250.5937,1229.5513 1320.6021,1083.4385 1224.2642,894.0383 1149.5034,1012.9886 1390.0805,1090.4627 1186.0201,1350.5811 883.8451,1562.8479 808.8123,1421.3466 749.3929,1271.4425 905.1048,1071.7592 1135.1883,968.3507 1184.4678,658.3311 1034.2489,889.463 1033.6994,1007.4707 998.618,657.3257"/>
    <polygon points="1188.7938,583.6591 988.4753,508.9563 785.9348,630.4206 667.4848,943.0422 852.046,1179.7352 1245.5255,1238.4163 1326.6174,1096.5758 1230.3721,886.3799 1132.6462,1008.9142 1402.3624,1074.1041 1205.852,1335.8417 888.5415,1571.6726 813.3986,1430.477 740.0172,1284.3914 890.0295,1077.2095 1131.2346,990.0041 1194.4941,643.5491 1034.0732,880.0615 1036.8834,1030.4863 985.9396,662.2368"/>
    <polygon points="1201.2864,589.0911 1001.4046,502.1793 794.5369,610.6112 656.9038,927.5612 826.2006,1175.2574 1239.7261,1246.9028 1332.516,1111.119 1238.1379,878.428 1113.8844,1005.659 1414.0735,1057.7422 1226.6964,1319.5313 893.1851,1580.4965 818.8875,1439.3139 731.0665,1297.9231 874.278,1081.4168 1126.3022,1014.1005 1205.2206,628.5578 1033.5957,868.4182 1041.2368,1054.7112 971.5831,667.1132"/>
    <polygon points="1213.736,595.278 1014.5419,496.2874 804.3443,590.5585 647.4261,911.402 799.0698,1169.9489 1233.1636,1254.8839 1338.1635,1127.1865 1247.8047,870.1051 1093.1364,1003.2703 1425.1031,1041.4888 1248.6288,1301.5439 897.7104,1589.3436 825.3058,1447.7898 722.6123,1312.1763 857.8782,1084.1242 1120.2742,1040.8067 1216.7217,613.5085 1032.7049,854.2973 1046.9566,1080.2317 955.4396,671.9022"/>
    <polygon points="1226.1304,602.2062 1027.8212,491.3538 815.353,570.2907 639.2131,894.5756 770.6201,1163.7978 1225.8146,1262.2154 1343.3986,1144.9106 1259.6367,861.3261 1070.3237,1001.7903 1435.3277,1025.4705 1271.7344,1281.7638 902.0459,1598.2451 832.6776,1455.8212 714.7286,1327.3183 840.8687,1085.0465 1113.0202,1070.2885 1229.0853,598.5797 1031.2679,837.4408 1054.2608,1107.144 937.3935,676.5486"/>
    <polygon points="1238.4609,609.8563 1041.1728,487.4549 827.5473,549.8371 632.4395,877.0939 740.817,1156.8021 1217.6669,1268.7339 1348.0304,1164.4381 1273.9211,851.9976 1045.3713,1001.2543 1444.6089,1009.8308 1296.1091,1260.0653 906.114,1607.2411 841.0234,1463.3061 707.4905,1343.5483 823.3004,1083.869 1104.3938,1102.709 1242.4159,583.9805 1029.1264,817.5666 1063.39,1135.5539 917.3224,680.9947"/>
    <polygon points="1250.7233,618.2021 1054.5244,484.67 840.8975,529.2283 627.294,858.9687 709.6233,1148.972 1208.7224,1274.254 1351.8345,1185.9328 1290.9685,842.0181 1018.2099,1001.6891 1452.7921,994.7322 1321.8609,1236.3108 909.831,1616.3825 850.3601,1470.1197 700.9739,1361.1018 805.2384,1080.2452 1094.2309,1138.2259 1256.8373,569.9549 1026.0942,794.3658 1074.6097,1165.5788 895.0957,685.1809"/>
    <polygon points="1262.918,627.2101 1067.8022,483.0816 855.3586,508.4962 623.9803,840.2111 676.9982,1140.3324 1199.0006,1278.5658 1354.5492,1209.5764 1311.1146,831.2786 988.777,1003.1112 1459.7042,980.3577 1349.1112,1210.3493 913.1064,1625.734 860.7004,1476.1106 695.2546,1380.2555 786.7645,1073.7957 1082.3465,1176.9887 1272.4963,556.7852 1021.953,767.5004 1088.212,1197.3477 870.5742,689.0456"/>
    <polygon points="1275.0505,636.8391 1080.9311,482.7755 870.8679,487.6739 622.7193,820.8301 642.8952,1130.9257 1188.5426,1281.4322 1355.8711,1235.5707 1334.721,819.6622 957.0187,1005.5243 1465.1514,966.9139 1377.9958,1182.0141 915.8432,1635.3765 872.0534,1481.0959 690.4062,1401.3321 767.98,1064.1064 1068.5319,1219.1347 1289.5661,544.7975 1016.4486,736.6002 1104.5189,1231.0024 843.6091,692.5261"/>
    <polygon points="1287.1314,647.039 1093.837,483.8407 887.3424,466.7967 623.7499,800.8311 607.2605,1120.8151 1177.4154,1282.585 1355.4507,1264.139 1362.1763,807.0452 922.8921,1008.9171 1468.9171,954.6335 1408.6663,1151.121 917.9379,1645.4113 884.4236,1484.8552 686.4994,1424.7058 749.0086,1050.7278 1052.5506,1264.7859 1308.2514,534.3666 1009.2862,701.2603 1123.8841,1266.6987 814.0409,695.5585"/>
    <polygon points="1299.177,657.7503 1106.4477,486.3699 904.6765,445.9023 627.3313,780.214 570.0301,1110.0879 1165.7172,1281.7221 1352.8877,1295.5285 1393.8968,793.2976 886.3677,1013.2597 1470.7588,943.778 1441.2921,1117.4648 919.2796,1655.9637 897.8119,1487.125 683.5993,1450.8079 730.0002,1033.1734 1034.1344,1314.0435 1328.7932,525.9219 1000.1255,661.0372 1146.6964,1304.6067 781.6985,698.0791"/>
    <polygon points="1311.2091,668.903 1118.695,490.4592 922.7386,425.031 633.7449,758.9709 531.1265,1098.8603 1153.5834,1278.5029 1347.725,1330.0114 1430.3278,778.284 847.4319,1018.5008 1470.4053,934.6421 1476.0615,1080.8165 919.7505,1667.1885 912.2151,1487.5911 681.7636,1480.1338 711.135,1010.9194 1012.9784,1366.9829 1351.4744,519.9537 988.575,615.4456 1173.383,1344.9122 746.3978,700.0242"/>
    <polygon points="1323.2553,680.416 1130.5168,496.208 941.368,404.2275 643.2975,737.0836 490.4554,1087.2814 1141.1927,1272.5439 1339.4438,1367.8878 1471.9437,761.8654 806.0904,1024.5638 1467.5534,927.557 1513.1839,1040.9193 919.2255,1679.2757 927.6269,1485.8806 681.0393,1513.2491 692.6283,983.4043 988.7352,1423.647 1376.6269,517.0203 974.1859,563.9541 1204.4125,1387.8175 707.9406,701.3314"/>
    <polygon points="1335.3483,692.1958 1141.8598,503.7191 960.371,383.5414 656.324,714.5199 447.9008,1075.5392 1128.7751,1263.4143 1327.4568,1409.487 1519.2484,743.9003 762.3722,1031.3417 1461.8642,922.8952 1552.8914,997.4834 917.5713,1692.4572 944.038,1481.5528 681.4595,1550.7972 674.7364,950.0286 961.0083,1484.0398 1404.6391,517.7562 956.445,505.9815 1240.2991,1433.5427 666.1135,701.9404"/>
    <polygon points="1347.526,704.1356 1152.6827,513.0984 979.5163,363.0288 673.191,691.2301 403.3195,1063.8664 1116.6199,1250.6306 1311.1022,1455.1696 1572.7761,724.2475 716.333,1038.6927 1452.959,921.0762 1595.4411,950.1813 914.6468,1707.0151 961.4379,1474.0892 683.0393,1593.5066 657.7625,910.156 929.3446,1548.117 1435.9638,522.8805 934.7676,440.8919 1281.6067,1482.3259 620.686,701.7941"/>
    <polygon points="1359.8304,716.1143 1162.9596,524.4547 998.5306,342.7545 694.3014,667.1423 356.5351,1052.5475 1105.0855,1233.6507 1289.6363,1505.3297 1633.0905,702.7684 668.0609,1046.4341 1440.4152,922.5719 1641.117,898.6407 910.3022,1723.2906 979.8158,1462.8819 685.7709,1642.1994 642.0649,863.1145 893.2256,1615.7777 1471.1288,533.2066 908.4885,367.9897 1328.9531,1534.425 571.4097,700.8394"/>
    <polygon points="1372.3069,727.9954 1172.684,537.8987 1017.0927,322.7944 720.0994,642.1567 307.3301,1041.9261 1094.6095,1211.8677 1262.2264,1560.3963 1700.7844,679.3306 617.6809,1054.3354 1423.7607,927.9142 1690.2329,842.437 904.3782,1741.6953 999.1623,1447.2207 689.6179,1697.7994 628.0654,808.1987 852.0575,1686.8527 1510.7472,549.6527 876.8534,286.5145 1383.0156,1590.1181 518.0165,699.029"/>
  </g>
</svg>
