<?xml version="1.0" encoding="UTF-8"?>
<svg id="Layer_1" data-name="Layer 1" xmlns="http://www.w3.org/2000/svg" viewBox="0 0 346.239 360.93" width="5in" height="5.21in">
  <defs>
    <style>
      .cls-1 {
        fill: none;
        stroke: #3a53a4;
        stroke-miterlimit: 3;
        stroke-width: .75px;
      }
    </style>
  </defs>
  <polygon class="cls-1" points="154.561 93.243 131.512 128.12 137.768 174.943 174.317 206.806 217.356 208.874 236.19 192.283 231.34 182.173 225.497 197.226 218.236 231.316 191.819 264.157 151.377 279.159 132.849 260.553 141.301 221.666 165.998 183.223 191.952 151.545 198.477 134.545 188.533 133.331 181.101 130.277 180.952 102.533 174.627 81.789 154.561 93.243"/>
  <polygon class="cls-1" points="153.121 95.423 131.903 131.046 140.052 176.934 177.007 206.935 218.533 207.837 235.887 191.651 230.975 183.113 225.043 199.356 216.585 233.369 189.291 265.094 150.219 277.996 133.378 258.123 142.845 219.264 167.62 181.243 192.36 150.482 197.855 134.469 188.068 133.14 181.092 128.543 180.557 101.236 173.373 82.505 153.121 95.423"/>
  <polygon class="cls-1" points="151.795 97.65 132.412 133.914 142.362 178.809 179.602 206.991 219.618 206.826 235.58 191.117 230.604 184.129 224.514 201.482 214.879 235.352 186.849 265.901 149.166 276.754 133.969 255.694 144.393 216.887 169.166 179.32 192.703 149.481 197.244 134.386 187.632 132.852 181.059 126.837 180.108 100.066 172.107 83.313 151.795 97.65"/>
  <polygon class="cls-1" points="150.583 99.916 133.034 136.72 144.689 180.57 182.103 206.981 220.615 205.844 235.269 190.681 230.224 185.213 223.912 203.599 213.127 237.261 184.494 266.579 148.216 275.438 134.621 253.268 145.941 214.539 170.637 177.455 192.987 148.538 196.643 134.29 187.221 132.476 180.999 125.164 179.608 99.019 170.837 84.209 150.583 99.916"/>
  <polygon class="cls-1" points="149.486 102.216 133.763 139.461 147.028 182.221 184.51 206.91 221.531 204.896 234.954 190.339 229.829 186.362 223.238 205.703 211.338 239.093 182.226 267.133 147.366 274.052 135.328 250.848 147.485 212.222 172.034 175.648 193.216 147.647 196.054 134.177 186.832 132.019 180.912 123.53 179.059 98.093 169.571 85.19 149.486 102.216"/>
  <polygon class="cls-1" points="148.504 104.544 134.592 142.133 149.37 183.764 186.824 206.784 222.37 203.986 234.633 190.09 229.417 187.571 222.494 207.79 209.518 240.846 180.048 267.565 146.614 272.602 136.088 248.434 149.019 209.936 173.358 173.898 193.393 146.805 195.478 134.042 186.462 131.489 180.796 121.94 178.466 97.287 168.316 86.255 148.504 104.544"/>
  <polygon class="cls-1" points="147.634 106.893 135.515 144.735 151.711 185.203 189.046 206.609 223.137 203.118 234.307 189.933 228.985 188.835 221.683 209.856 207.676 242.516 177.958 267.88 145.956 271.091 136.896 246.028 150.54 207.683 174.61 172.205 193.523 146.008 194.914 133.883 186.108 130.892 180.651 120.399 177.832 96.597 167.078 87.398 147.634 106.893"/>
  <polygon class="cls-1" points="146.877 109.259 136.528 147.264 154.045 186.541 191.176 206.391 223.835 202.294 233.975 189.864 228.528 190.149 220.808 211.897 205.819 244.101 175.958 268.081 145.39 269.525 137.749 243.631 152.045 205.466 175.792 170.567 193.61 145.25 194.364 133.696 185.767 130.236 180.475 118.911 177.16 96.022 165.863 88.616 146.877 109.259"/>
  <polygon class="cls-1" points="146.23 111.634 137.622 149.719 156.365 187.781 193.218 206.135 224.468 201.517 233.634 189.882 228.046 191.508 219.871 213.91 203.953 245.6 174.048 268.171 144.912 267.906 138.642 241.246 153.529 203.285 176.906 168.985 193.657 144.528 193.827 133.479 185.436 129.528 180.267 117.481 176.454 95.559 164.676 89.906 146.23 111.634"/>
  <polygon class="cls-1" points="145.692 114.014 138.794 152.098 158.669 188.929 195.171 205.846 225.041 200.79 233.285 189.984 227.535 192.908 218.876 215.89 202.084 247.01 172.227 268.154 144.521 266.24 139.573 238.873 154.99 201.141 177.953 167.457 193.668 143.837 193.302 133.232 185.113 128.775 180.029 116.111 175.718 95.206 163.523 91.264 145.692 114.014"/>
  <polygon class="cls-1" points="145.261 116.394 140.036 154.4 160.95 189.986 197.038 205.53 225.557 200.114 232.926 190.166 226.994 194.344 217.827 217.835 200.217 248.332 170.495 268.035 144.211 264.53 140.536 236.515 156.425 199.036 178.935 165.98 193.645 143.174 192.79 132.954 184.796 127.984 179.76 114.804 174.956 94.96 162.409 92.686 145.261 116.394"/>
  <polygon class="cls-1" points="144.934 118.77 141.343 156.624 163.205 190.957 198.82 205.192 226.017 199.493 232.555 190.427 226.421 195.812 216.726 219.741 198.36 249.563 168.852 267.816 143.982 262.779 141.529 234.173 157.832 196.97 179.854 164.555 193.592 142.536 192.291 132.643 184.481 127.16 179.459 113.564 174.171 94.817 161.337 94.168 144.934 118.77"/>
  <polygon class="cls-1" points="144.71 121.136 142.71 158.77 165.431 191.847 200.52 204.836 226.426 198.926 232.171 190.764 225.815 197.308 215.578 221.605 196.516 250.704 167.298 267.501 143.828 260.991 142.548 231.847 159.208 194.944 180.713 163.179 193.51 141.917 191.803 132.301 184.167 126.31 179.129 112.392 173.369 94.777 160.312 95.706 144.71 121.136"/>
  <polygon class="cls-1" points="144.585 123.488 144.13 160.837 167.624 192.659 202.139 204.466 226.785 198.416 231.774 191.173 225.175 198.827 214.387 223.424 194.689 251.754 165.831 267.094 143.748 259.169 143.59 229.541 160.552 192.959 181.513 161.85 193.404 141.316 191.325 131.926 183.852 125.44 178.769 111.291 172.553 94.835 159.337 97.295 144.585 123.488"/>
  <polygon class="cls-1" points="144.556 125.822 145.598 162.826 169.782 193.397 203.679 204.088 227.097 197.963 231.362 191.651 224.501 200.364 213.156 225.195 192.886 252.713 164.451 266.599 143.738 257.318 144.65 227.255 161.862 191.014 182.256 160.567 193.274 140.729 190.858 131.521 183.534 124.556 178.38 110.263 171.727 94.989 158.415 98.932 144.556 125.822"/>
  <polygon class="cls-1" points="144.621 128.135 147.11 164.737 171.9 194.065 205.143 203.705 227.363 197.569 230.933 192.196 223.792 201.916 211.889 226.914 191.109 253.581 163.156 266.019 143.795 255.439 145.726 224.99 163.137 189.111 182.944 159.327 193.123 140.154 190.4 131.086 183.212 123.663 177.965 109.308 170.895 95.235 157.549 100.613 144.621 128.135"/>
  <polygon class="cls-1" points="144.777 130.423 148.659 166.57 173.978 194.668 206.532 203.322 227.586 197.233 230.487 192.803 223.048 203.478 210.59 228.581 189.362 254.358 161.946 265.357 143.916 253.536 146.814 222.747 164.375 187.25 183.581 158.128 192.953 139.587 189.951 130.622 182.884 122.766 177.523 108.428 170.061 95.571 156.741 102.333 144.777 130.423"/>
  <polygon class="cls-1" points="145.02 132.682 150.241 168.326 176.012 195.208 207.848 202.941 227.768 196.956 230.022 193.471 222.269 205.047 209.263 230.192 187.648 255.045 160.819 264.619 144.097 251.611 147.911 220.529 165.575 185.43 184.166 156.97 192.765 139.027 189.51 130.131 182.549 121.87 177.056 107.625 169.228 95.994 155.993 104.088 145.02 132.682"/>
  <polygon class="cls-1" points="145.346 134.91 151.852 170.006 178.002 195.692 209.093 202.567 227.908 196.738 229.537 194.194 221.456 206.619 207.912 231.745 185.971 255.644 159.774 263.806 144.336 249.669 149.015 218.335 166.737 183.651 184.704 155.848 192.562 138.471 189.075 129.614 182.206 120.979 176.567 106.898 168.401 96.5 155.307 105.875 145.346 134.91"/>
  <polygon class="cls-1" points="145.753 137.103 153.487 171.611 179.945 196.121 210.269 202.203 228.01 196.579 229.032 194.971 220.61 208.189 206.541 233.239 184.334 256.154 158.809 262.922 144.628 247.71 150.123 216.167 167.86 181.913 185.195 154.762 192.344 137.917 188.645 129.075 181.853 120.099 176.057 106.248 167.583 97.086 154.684 107.69 145.753 137.103"/>
  <polygon class="cls-1" points="146.236 139.26 155.14 173.143 181.841 196.502 211.377 201.851 228.074 196.479 228.506 195.797 219.73 209.755 205.153 234.671 182.739 256.577 157.923 261.971 144.971 245.739 151.232 214.026 168.944 180.216 185.642 153.709 192.112 137.365 188.221 128.514 181.491 119.233 175.527 105.675 166.777 97.749 154.126 109.528 146.236 139.26"/>
  <polygon class="cls-1" points="146.792 141.378 156.809 174.603 183.687 196.836 212.421 201.516 228.101 196.436 227.957 196.669 218.819 211.312 203.752 236.04 181.188 256.914 157.113 260.957 145.363 243.757 152.339 211.913 169.987 178.56 186.046 152.688 191.869 136.811 187.8 127.934 181.118 118.386 174.98 105.18 165.986 98.485 153.633 111.387 146.792 141.378"/>
  <polygon class="cls-1" points="147.419 143.454 158.489 175.993 185.482 197.128 213.401 201.198 228.092 196.451 227.386 197.584 217.878 212.858 202.342 237.345 179.683 257.167 156.379 259.882 145.799 241.767 153.442 209.829 170.991 176.943 186.41 151.695 191.615 136.257 187.383 127.337 180.735 117.561 174.418 104.762 165.214 99.291 153.206 113.261 147.419 143.454"/>
  <polygon class="cls-1" points="148.11 145.488 160.176 177.314 187.227 197.383 214.319 200.901 228.048 196.522 226.792 198.539 216.907 214.388 200.926 238.584 178.227 257.336 155.718 258.75 146.276 239.77 154.538 207.773 171.955 175.365 186.735 150.731 191.35 135.699 186.967 126.726 180.34 116.761 173.843 104.42 164.463 100.164 152.844 115.148 148.11 145.488"/>
  <polygon class="cls-1" points="148.865 147.477 161.867 178.568 188.921 197.603 215.177 200.628 227.969 196.648 226.174 199.53 215.908 215.9 199.507 239.756 176.82 257.425 155.128 257.563 146.793 237.771 155.627 205.748 172.878 173.825 187.024 149.791 191.076 135.138 186.553 126.103 179.934 115.989 173.257 104.154 163.737 101.101 152.548 117.044 148.865 147.477"/>
  <polygon class="cls-1" points="149.677 149.42 163.557 179.758 190.562 197.792 215.977 200.379 227.857 196.828 225.532 200.553 214.883 217.391 198.089 240.86 175.464 257.433 154.607 256.326 147.345 235.769 156.705 203.752 173.762 172.323 187.277 148.875 190.794 134.574 186.139 125.471 179.517 115.25 172.662 103.963 163.038 102.097 152.318 118.946 149.677 149.42"/>
  <polygon class="cls-1" points="150.545 151.316 165.245 180.885 192.15 197.953 216.719 200.157 227.712 197.061 224.867 201.605 213.833 218.858 196.675 241.896 174.16 257.364 154.153 255.042 147.93 233.768 157.771 201.788 174.607 170.857 187.497 147.981 190.503 134.005 185.725 124.832 179.088 114.544 172.06 103.846 162.368 103.15 152.153 120.851 150.545 151.316"/>
  <polygon class="cls-1" points="151.463 153.164 166.927 181.952 193.686 198.091 217.406 199.963 227.534 197.345 224.177 202.683 212.761 220.298 195.268 242.863 172.91 257.219 153.764 253.712 148.545 231.769 158.823 199.855 175.413 169.428 187.685 147.108 190.204 133.431 185.31 124.189 178.649 113.876 171.454 103.803 161.729 104.257 152.052 122.755 151.463 153.164"/>
  <polygon class="cls-1" points="152.43 154.963 168.599 182.96 195.168 198.208 218.039 199.8 227.324 197.678 223.464 203.784 211.667 221.708 193.87 243.76 171.713 257 153.438 252.341 149.187 229.775 159.86 197.953 176.18 168.033 187.842 146.253 189.898 132.854 184.894 123.545 178.199 113.246 170.847 103.831 161.125 105.413 152.015 124.656 152.43 154.963"/>
  <polygon class="cls-1" points="153.441 156.713 170.26 183.913 196.598 198.308 218.62 199.667 227.083 198.06 222.726 204.905 210.555 223.086 192.486 244.588 170.571 256.709 153.172 250.93 149.854 227.786 160.88 196.083 176.909 166.672 187.971 145.416 189.586 132.272 184.476 122.901 177.74 112.658 170.239 103.93 160.555 106.615 152.041 126.55 153.441 156.713"/>
  <polygon class="cls-1" points="154.492 158.413 171.906 184.813 197.974 198.393 219.149 199.567 226.811 198.488 221.966 206.041 209.426 224.43 191.116 245.345 169.484 256.347 152.965 249.484 150.544 225.804 161.882 194.245 177.6 165.343 188.072 144.594 189.266 131.686 184.055 122.261 177.271 112.112 169.634 104.098 160.023 107.861 152.129 128.435 154.492 158.413"/>
  <polygon class="cls-1" points="155.58 160.063 173.535 185.662 199.297 198.466 219.627 199.499 226.508 198.96 221.182 207.19 208.281 225.737 189.764 246.033 168.451 255.918 152.813 248.004 151.252 223.832 162.864 192.439 178.254 164.046 188.146 143.787 188.94 131.097 183.631 121.626 176.794 111.611 169.033 104.333 159.53 109.147 152.276 130.309 155.58 160.063"/>
  <polygon class="cls-1" points="156.702 161.663 175.145 186.462 200.568 198.531 220.058 199.466 226.175 199.474 220.376 208.349 207.124 227.006 188.432 246.651 167.474 255.424 152.716 246.493 151.978 221.87 163.826 190.664 178.873 162.78 188.196 142.994 188.609 130.505 183.203 121 176.309 111.156 168.439 104.634 159.076 110.47 152.483 132.168 156.702 161.663"/>
  <polygon class="cls-1" points="157.855 163.213 176.734 187.216 201.786 198.589 220.44 199.466 225.813 200.029 219.547 209.516 205.956 228.234 187.122 247.199 166.552 254.866 152.67 244.954 152.718 219.92 164.767 188.921 179.455 161.543 188.222 142.214 188.271 129.911 182.772 120.385 175.817 110.749 167.854 104.999 158.664 111.826 152.747 134.012 157.855 163.213"/>
  <polygon class="cls-1" points="159.035 164.713 178.3 187.927 202.952 198.644 220.776 199.501 225.421 200.622 218.698 210.685 204.779 229.419 185.836 247.678 165.684 254.246 152.673 243.389 153.472 217.982 165.685 187.21 180.003 160.335 188.225 141.445 187.927 129.316 182.338 119.783 175.319 110.389 167.28 105.425 158.294 113.213 153.066 135.837 159.035 164.713"/>
  <polygon class="cls-1" points="160.239 166.164 179.841 188.597 204.066 198.697 221.066 199.571 225.001 201.251 217.828 211.856 203.595 230.56 184.577 248.089 164.871 253.568 152.723 241.801 154.235 216.059 166.58 185.531 180.517 159.155 188.206 140.687 187.578 128.72 181.899 119.196 174.817 110.079 166.718 105.912 157.968 114.627 153.439 137.642 160.239 166.164"/>
  <polygon class="cls-1" points="161.464 167.566 181.355 189.228 205.128 198.752 221.312 199.676 224.553 201.914 216.938 213.025 202.406 231.656 183.345 248.431 164.111 252.832 152.817 240.193 155.006 214.151 167.451 183.882 180.998 158 188.167 139.939 187.223 128.125 181.456 118.626 174.31 109.819 166.171 106.457 157.685 116.065 153.864 139.424 161.464 167.566"/>
  <polygon class="cls-1" points="162.707 168.92 182.841 189.823 206.14 198.81 221.514 199.816 224.077 202.608 216.03 214.19 201.215 232.704 182.143 248.706 163.406 252.042 152.954 238.565 155.784 212.259 168.297 182.264 181.446 156.872 188.108 139.2 186.862 127.531 181.01 118.076 173.802 109.609 165.641 107.057 157.446 117.525 154.339 141.183 162.707 168.92"/>
  <polygon class="cls-1" points="163.966 170.227 184.297 190.385 207.101 198.873 221.675 199.991 223.574 203.332 215.104 215.347 200.023 233.704 180.972 248.915 162.752 251.2 153.131 236.921 156.566 210.384 169.119 180.677 181.862 155.767 188.03 138.471 186.497 126.94 180.559 117.546 173.292 109.449 165.129 107.711 157.252 119.004 154.862 142.917 163.966 170.227"/>
  <polygon class="cls-1" points="165.236 171.486 185.722 190.916 208.012 198.943 221.793 200.199 223.044 204.083 214.162 216.494 198.832 234.655 179.833 249.057 162.151 250.307 153.346 235.262 157.351 208.528 169.916 179.12 182.248 154.686 187.934 137.75 186.126 126.353 180.105 117.04 172.781 109.341 164.636 108.417 157.102 120.498 155.431 144.624 165.236 171.486"/>
  <polygon class="cls-1" points="166.517 172.701 187.115 191.417 208.873 199.021 221.871 200.442 222.489 204.859 213.204 217.629 197.645 235.555 178.728 249.136 161.601 249.367 153.596 233.591 158.136 206.69 170.686 177.593 182.603 153.628 187.821 137.038 185.749 125.771 179.647 116.559 172.272 109.283 164.165 109.172 156.998 122.006 156.044 146.303 166.517 172.701"/>
  <polygon class="cls-1" points="167.804 173.871 188.475 191.892 209.685 199.11 221.91 200.718 221.909 205.657 212.231 218.75 196.462 236.404 177.658 249.15 161.1 248.381 153.88 231.91 158.921 204.871 171.431 176.095 182.929 152.591 187.692 136.334 185.368 125.195 179.186 116.104 171.766 109.276 163.717 109.974 156.938 123.525 156.698 147.952 167.804 173.871"/>
  <polygon class="cls-1" points="169.096 174.997 189.801 192.344 210.45 199.21 221.91 201.027 221.304 206.475 211.246 219.853 195.287 237.201 176.623 249.102 160.649 247.352 154.195 230.22 159.702 203.073 172.15 174.626 183.227 151.575 187.546 135.638 184.982 124.627 178.723 115.678 171.263 109.32 163.294 110.821 156.923 125.051 157.392 149.572 169.096 174.997"/>
  <polygon class="cls-1" points="170.39 176.081 191.091 192.773 211.166 199.324 221.872 201.367 220.675 207.311 210.248 220.937 194.121 237.944 175.624 248.993 160.246 246.281 154.539 228.523 160.48 201.295 172.842 173.186 183.497 150.579 187.386 134.95 184.59 124.068 178.256 115.28 170.765 109.413 162.896 111.711 156.953 126.584 158.124 151.161 170.39 176.081"/>
  <polygon class="cls-1" points="171.684 177.124 192.346 193.182 211.835 199.452 221.797 201.739 220.024 208.163 209.24 222 192.965 238.635 174.663 248.823 159.889 245.171 154.91 226.822 161.253 199.538 173.508 171.773 183.74 149.602 187.211 134.269 184.195 123.518 177.788 114.913 170.273 109.557 162.524 112.64 157.026 128.12 158.891 152.719 171.684 177.124"/>
  <polygon class="cls-1" points="172.975 178.128 193.564 193.574 212.458 199.595 221.686 202.14 219.35 209.028 208.223 223.04 191.821 239.272 173.74 248.595 159.578 244.024 155.307 225.116 162.019 197.803 174.148 170.387 183.957 148.644 187.023 133.597 183.794 122.981 177.318 114.579 169.788 109.75 162.18 113.608 157.142 129.657 159.69 154.244 172.975 178.128"/>
  <polygon class="cls-1" points="174.262 179.093 194.745 193.95 213.034 199.754 221.54 202.571 218.654 209.903 207.198 224.054 190.691 239.854 172.855 248.309 159.311 242.843 155.726 223.409 162.777 196.089 174.761 169.028 184.149 147.703 186.821 132.934 183.389 122.456 176.848 114.277 169.313 109.991 161.866 114.611 157.302 131.194 160.52 155.737 174.262 179.093"/>
  <polygon class="cls-1" points="175.542 180.022 195.888 194.313 213.566 199.93 221.36 203.029 217.938 210.788 206.166 225.042 189.576 240.383 172.008 247.968 159.087 241.628 156.167 221.702 163.526 194.398 175.347 167.695 184.316 146.78 186.607 132.279 182.981 121.944 176.377 114.009 168.848 110.28 161.58 115.647 157.503 132.728 161.379 157.197 175.542 180.022"/>
  <polygon class="cls-1" points="176.814 180.915 196.993 194.664 214.053 200.123 221.146 203.514 217.202 211.679 205.129 226.001 188.478 240.857 171.201 247.571 158.904 240.383 156.627 219.995 164.265 192.729 175.908 166.388 184.459 145.874 186.38 131.633 182.568 121.448 175.906 113.776 168.393 110.615 161.325 116.715 157.745 134.257 162.265 158.623 176.814 180.915"/>
  <polygon class="cls-1" points="178.075 181.774 198.059 195.005 214.496 200.335 220.9 204.024 216.448 212.574 204.089 226.929 187.398 241.276 170.432 247.122 158.762 239.108 157.104 218.291 164.992 191.083 176.442 165.106 184.579 144.984 186.142 130.997 182.151 120.969 175.437 113.578 167.952 110.996 161.102 117.811 158.028 135.78 163.174 160.016 178.075 181.774"/>
  <polygon class="cls-1" points="179.324 182.601 199.086 195.338 214.897 200.566 220.621 204.559 215.675 213.471 203.045 227.826 186.338 241.642 169.703 246.621 158.658 237.807 157.597 216.591 165.708 189.459 176.951 163.848 184.676 144.11 185.892 130.37 181.732 120.507 174.969 113.417 167.523 111.422 160.91 118.934 158.349 137.295 164.105 161.376 179.324 182.601"/>
  <polygon class="cls-1" points="180.559 183.397 200.075 195.665 215.254 200.816 220.312 205.116 214.886 214.368 202.001 228.689 185.298 241.953 169.013 246.07 158.592 236.481 158.104 214.895 166.411 187.858 177.434 162.615 184.752 143.251 185.632 129.753 181.309 120.064 174.504 113.292 167.11 111.892 160.75 120.082 158.709 138.8 165.056 162.703 180.559 183.397"/>
  <polygon class="cls-1" points="181.779 184.164 201.023 195.987 215.571 201.084 219.973 205.694 214.081 215.263 200.957 229.518 184.28 242.21 168.361 245.471 158.562 235.132 158.623 213.205 167.1 186.281 177.891 161.404 184.807 142.407 185.362 129.148 180.884 119.641 174.041 113.205 166.713 112.404 160.622 121.252 159.106 140.294 166.025 163.996 181.779 184.164"/>
  <polygon class="cls-1" points="182.982 184.903 201.933 196.306 215.846 201.372 219.605 206.292 213.261 216.154 199.915 230.312 183.285 242.414 167.749 244.825 158.565 233.762 159.153 211.522 167.774 184.726 178.323 160.217 184.842 141.579 185.082 128.554 180.456 119.238 173.583 113.155 166.332 112.957 160.527 122.442 159.538 141.775 167.01 165.257 182.982 184.903"/>
  <polygon class="cls-1" points="184.166 185.616 202.802 196.622 216.081 201.68 219.208 206.908 212.426 217.039 198.876 231.068 182.314 242.565 167.175 244.133 158.602 232.372 159.692 209.848 168.433 183.194 178.731 159.052 184.857 140.764 184.793 127.971 180.027 118.858 173.13 113.142 165.969 113.549 160.465 123.65 160.005 143.243 168.008 166.485 184.166 185.616"/>
  <polygon class="cls-1" points="185.331 186.304 203.632 196.938 216.276 202.007 218.785 207.542 211.58 217.916 197.841 231.787 181.368 242.663 166.639 243.398 158.67 230.964 160.238 208.182 169.077 181.685 179.114 157.909 184.853 139.965 184.495 127.402 179.596 118.501 172.683 113.168 165.625 114.181 160.437 124.875 160.505 144.696 169.018 167.68 185.331 186.304"/>
  <polygon class="cls-1" points="186.475 186.968 204.422 197.255 216.433 202.353 218.334 208.19 210.721 218.783 196.811 232.466 180.448 242.709 166.141 242.621 158.768 229.54 160.791 206.526 169.704 180.199 179.472 156.788 184.831 139.18 184.189 126.846 179.163 118.168 172.242 113.231 165.301 114.849 160.441 126.114 161.037 146.132 170.038 168.844 186.475 186.968"/>
  <polygon class="cls-1" points="187.596 187.611 205.173 197.574 216.552 202.717 217.858 208.852 209.851 219.638 195.788 233.106 179.553 242.703 165.68 241.804 158.895 228.102 161.348 204.88 170.315 178.736 179.807 155.687 184.791 138.409 183.875 126.303 178.731 117.859 171.808 113.332 164.997 115.553 160.478 127.365 161.6 147.552 171.065 169.977 187.596 187.611"/>
  <polygon class="cls-1" points="188.695 188.234 205.884 197.895 216.633 203.101 217.358 209.526 208.973 220.48 194.774 233.706 178.686 242.647 165.256 240.947 159.048 226.65 161.908 203.246 170.908 177.296 180.119 154.607 184.733 137.652 183.553 125.775 178.298 117.576 171.382 113.471 164.715 116.291 160.548 128.626 162.191 148.953 172.098 171.079 188.695 188.234"/>
  <polygon class="cls-1" points="189.769 188.838 206.556 198.221 216.679 203.502 216.834 210.211 208.085 221.306 193.768 234.265 177.847 242.541 164.868 240.054 159.227 225.188 162.471 201.624 171.484 175.877 180.407 153.548 184.66 136.91 183.225 125.263 177.866 117.32 170.965 113.647 164.454 117.062 160.651 129.897 162.811 150.336 173.135 172.151 189.769 188.838"/>
  <polygon class="cls-1" points="156.116 91.117 131.245 125.139 135.517 172.832 171.533 206.597 216.08 209.932 236.489 193.014 231.705 181.311 225.875 195.094 219.823 229.198 194.43 263.085 152.642 280.237 132.388 262.984 139.768 224.094 164.299 185.259 191.475 152.673 199.107 134.62 189.029 133.417 181.089 132.032 181.291 103.957 175.861 81.168 156.116 91.117"/>
  <polygon class="cls-1" points="157.783 89.051 131.108 122.108 133.308 170.601 168.655 206.304 214.7 211.004 236.783 193.846 232.073 180.534 226.177 192.966 221.336 227.02 197.125 261.875 154.019 281.225 131.997 265.413 138.251 226.543 162.524 187.352 190.924 153.871 199.743 134.702 189.56 133.392 181.056 133.8 181.573 105.511 177.066 80.642 157.783 89.051"/>
  <polygon class="cls-1" points="159.561 87.052 131.105 119.032 131.149 168.246 165.685 205.918 213.209 212.086 237.072 194.78 232.451 179.847 226.405 190.844 222.765 224.786 199.899 260.526 155.508 282.118 131.68 267.84 136.756 229.013 160.673 189.499 190.293 155.142 200.384 134.799 190.131 133.246 181.007 135.574 181.796 107.198 178.233 80.215 159.561 87.052"/>
  <polygon class="cls-1" points="161.449 85.128 131.242 115.917 129.051 165.767 162.624 205.435 211.599 213.17 237.354 195.815 232.844 179.254 226.559 188.734 224.1 222.503 202.751 259.034 157.113 282.908 131.439 270.262 135.29 231.5 158.746 191.7 189.578 156.49 201.027 134.921 190.743 132.973 180.944 137.344 181.959 109.019 179.352 79.887 161.449 85.128"/>
  <polygon class="cls-1" points="163.444 83.285 131.523 112.767 127.023 163.162 159.474 204.847 209.864 214.251 237.627 196.951 233.257 178.762 226.641 186.637 225.328 220.177 205.679 257.397 158.835 283.59 131.278 272.68 133.86 234.003 156.744 193.952 188.772 157.918 201.668 135.078 191.401 132.564 180.869 139.102 182.062 110.976 180.412 79.661 163.444 83.285"/>
  <polygon class="cls-1" points="165.544 81.532 131.953 109.59 125.075 160.429 156.24 204.149 207.995 215.322 237.889 198.19 233.697 178.376 226.654 184.559 226.438 217.814 208.679 255.613 160.677 284.157 131.198 275.09 132.472 236.52 154.669 196.254 187.87 159.427 202.305 135.283 192.109 132.013 180.787 140.837 182.106 113.072 181.404 79.536 165.544 81.532"/>
  <polygon class="cls-1" points="167.744 79.874 132.535 106.391 123.218 157.569 152.923 203.333 205.986 216.375 238.137 199.529 234.17 178.101 226.603 182.501 227.417 215.423 211.748 253.68 162.642 284.601 131.202 277.493 131.136 239.048 152.523 198.603 186.865 161.019 202.935 135.547 192.87 131.311 180.7 142.539 182.092 115.309 182.314 79.513 167.744 79.874"/>
  <polygon class="cls-1" points="170.042 78.321 133.273 103.178 121.464 154.581 149.53 202.396 203.827 217.402 238.368 200.968 234.682 177.943 226.493 180.467 228.253 213.011 214.883 251.598 164.732 284.915 131.292 279.887 129.858 241.584 150.307 200.997 185.753 162.694 203.551 135.887 193.687 130.452 180.611 144.196 182.022 117.69 183.132 79.593 170.042 78.321"/>
  <polygon class="cls-1" points="172.434 76.878 134.17 99.959 119.824 151.464 146.064 201.329 201.511 218.395 238.576 202.505 235.239 177.909 226.331 178.459 228.931 210.588 218.078 249.365 166.95 285.092 131.469 282.271 128.646 244.128 148.026 203.433 184.526 164.453 204.15 136.318 194.564 129.429 180.525 145.794 181.901 120.218 183.846 79.774 172.434 76.878"/>
  <polygon class="cls-1" points="174.914 75.554 135.227 96.742 118.31 148.22 142.533 200.128 199.027 219.346 238.758 204.139 235.847 178.004 226.124 176.479 229.438 208.162 221.33 246.981 169.298 285.121 131.732 284.644 127.511 246.676 145.682 205.909 183.18 166.293 204.726 136.856 195.506 128.236 180.445 147.321 181.732 122.895 184.441 80.055 174.914 75.554"/>
  <polygon class="cls-1" points="177.479 74.355 136.447 93.535 116.935 144.849 138.944 198.787 196.369 220.245 238.908 205.866 236.511 178.236 225.882 174.528 229.758 205.743 224.634 244.447 171.779 284.996 132.084 287.005 126.459 249.226 143.281 208.422 181.707 168.211 205.274 137.522 196.514 126.868 180.373 148.76 181.52 125.726 184.905 80.435 177.479 74.355"/>
  <polygon class="cls-1" points="180.122 73.289 137.829 90.347 115.71 141.352 135.306 197.3 193.525 221.082 239.019 207.683 237.237 178.611 225.615 172.607 229.876 203.341 227.983 241.763 174.396 284.705 132.523 289.354 125.502 251.776 140.826 210.97 180.101 170.202 205.786 138.336 197.594 125.32 180.313 150.097 181.273 128.714 185.224 80.912 180.122 73.289"/>
  <polygon class="cls-1" points="182.839 72.362 139.375 87.188 114.649 137.731 131.627 195.664 190.488 221.848 239.085 209.586 238.031 179.137 225.338 170.717 229.776 200.969 231.372 238.931 177.152 284.24 133.048 291.689 124.647 254.325 138.324 213.551 178.358 172.261 206.255 139.319 198.75 123.587 180.268 151.313 180.999 131.863 185.383 81.482 182.839 72.362"/>
  <polygon class="cls-1" points="185.622 71.582 141.082 84.068 113.764 133.988 127.919 193.872 187.247 222.534 239.098 211.57 238.895 179.822 225.064 168.855 229.442 198.636 234.793 235.954 180.052 283.588 133.657 294.01 123.904 256.869 135.781 216.162 176.47 174.379 206.673 140.496 199.984 121.667 180.238 152.388 180.708 135.177 185.367 82.142 185.622 71.582"/>
  <polygon class="cls-1" points="188.467 70.954 142.95 80.997 113.069 130.126 124.194 191.922 183.794 223.127 239.049 213.63 239.834 180.676 224.812 167.022 228.855 196.356 238.239 232.835 183.099 282.74 134.349 296.317 123.285 259.407 133.204 218.803 174.433 176.545 207.031 141.892 201.301 119.557 180.227 153.303 180.411 138.663 185.16 82.887 188.467 70.954"/>
  <polygon class="cls-1" points="191.367 70.485 144.975 77.988 112.576 126.147 120.465 189.809 180.118 223.618 238.929 215.758 240.85 181.707 224.599 165.214 227.999 194.142 241.702 229.579 186.297 281.682 135.119 298.609 122.797 261.936 130.602 221.474 172.24 178.745 207.32 143.534 202.705 117.259 180.234 154.035 180.122 142.327 184.747 83.714 191.367 70.485"/>
  <polygon class="cls-1" points="194.314 70.181 147.153 75.05 112.297 122.055 116.749 187.53 176.211 223.997 238.728 217.947 241.943 182.925 224.449 163.428 226.854 192.005 245.172 226.19 189.653 280.401 135.964 300.886 122.451 264.453 127.982 224.174 169.888 180.965 207.527 145.451 204.202 114.772 180.259 154.559 179.856 146.174 184.109 84.616 194.314 70.181"/>
  <polygon class="cls-1" points="197.303 70.047 149.48 72.196 112.246 117.853 113.061 185.082 172.063 224.251 238.435 220.187 243.114 184.343 224.385 161.659 225.402 189.96 248.639 222.677 193.171 278.885 136.877 303.148 122.257 266.956 125.357 226.907 167.371 183.184 207.643 147.675 205.795 112.101 180.301 154.849 179.631 150.213 183.229 85.588 197.303 70.047"/>
  <polygon class="cls-1" points="200.327 70.087 151.95 69.439 112.435 113.546 109.421 182.463 167.664 224.369 238.041 222.468 244.359 185.972 224.436 159.902 223.623 188.021 252.091 219.048 196.859 277.118 137.854 305.395 122.226 269.441 122.735 229.676 164.685 185.381 207.653 150.236 207.491 109.249 180.356 154.875 179.467 154.452 182.089 86.621 200.327 70.087"/>
  <polygon class="cls-1" points="203.378 70.307 154.555 66.793 112.874 109.138 105.849 179.671 163.006 224.342 237.532 224.777 245.674 187.827 224.632 158.148 221.496 186.202 255.515 215.312 200.724 275.084 138.887 307.628 122.365 271.905 120.128 232.485 161.828 187.528 207.544 153.171 209.296 106.225 180.421 154.607 179.387 158.902 180.67 87.709 203.378 70.307"/>
  <polygon class="cls-1" points="206.451 70.709 157.287 64.27 113.574 104.633 102.367 176.705 158.08 224.158 236.897 227.101 247.052 189.923 225.007 156.391 219.003 184.516 258.898 211.482 204.775 272.766 139.967 309.847 122.686 274.342 117.551 235.345 158.797 189.596 207.299 156.513 211.216 103.039 180.488 154.009 179.416 163.573 178.951 88.842 206.451 70.709"/>
  <polygon class="cls-1" points="209.539 71.298 160.137 61.886 114.546 100.038 98.999 173.565 152.877 223.807 236.125 229.423 248.482 192.277 225.6 154.618 216.122 182.979 262.223 207.571 209.021 270.147 141.085 312.054 123.198 276.748 115.015 238.264 155.59 191.549 206.901 160.3 213.261 99.706 180.548 153.045 179.583 168.477 176.912 90.012 209.539 71.298"/>
  <polygon class="cls-1" points="212.635 72.074 163.092 59.654 115.798 95.357 95.773 170.25 147.389 223.28 235.203 231.724 249.95 194.907 226.451 152.819 212.831 181.605 265.473 203.595 213.473 267.207 142.23 314.25 123.909 279.114 112.535 241.259 152.207 193.347 206.332 164.57 215.439 96.241 180.59 151.672 179.92 173.628 174.531 91.208 212.635 72.074"/>
  <polygon class="cls-1" points="215.734 73.039 166.143 57.592 117.336 90.596 92.718 166.763 141.607 222.566 234.121 233.983 251.44 197.836 227.607 150.98 209.112 180.407 268.628 199.573 218.146 263.925 143.39 316.438 124.827 281.431 110.127 244.346 148.649 194.946 205.57 169.364 217.761 92.668 180.599 149.848 180.463 179.042 171.784 92.419 215.734 73.039"/>
  <polygon class="cls-1" points="218.832 74.194 169.275 55.713 119.168 85.763 89.864 163.103 135.523 221.659 232.867 236.176 252.928 201.086 229.118 149.085 204.941 179.399 271.667 195.526 223.052 260.278 144.552 318.621 125.962 283.69 107.808 247.55 144.92 196.295 204.592 174.721 220.242 89.011 180.555 147.522 181.25 184.736 168.647 93.634 218.832 74.194"/>
  <polygon class="cls-1" points="221.922 75.538 172.473 54.037 121.296 80.862 87.246 159.273 129.129 220.551 231.432 238.275 254.387 204.684 231.039 147.118 200.3 178.594 274.564 191.479 228.209 256.243 145.701 320.804 127.32 285.876 105.594 250.897 141.023 197.336 203.372 180.682 222.896 85.302 180.437 144.641 182.327 190.729 165.096 94.84 221.922 75.538"/>
  <polygon class="cls-1" points="225.002 77.069 175.723 52.579 123.722 75.901 84.902 155.275 122.417 219.238 229.808 240.25 255.785 208.659 233.431 145.059 195.167 178.003 277.293 187.458 233.634 251.793 146.82 322.993 128.908 287.973 103.502 254.424 136.966 198.005 201.881 187.289 225.741 81.579 180.217 141.148 183.742 197.042 161.102 96.025 225.002 77.069"/>
  <polygon class="cls-1" points="228.068 78.783 179.008 51.359 126.445 70.887 82.87 151.113 115.379 217.716 227.99 242.064 257.08 213.043 236.358 142.887 189.523 177.637 279.822 183.495 239.351 246.9 147.893 325.195 130.731 289.96 101.552 258.17 132.758 198.234 200.086 194.582 228.8 77.886 179.861 136.978 185.549 203.7 156.637 97.174 228.068 78.783"/>
  <polygon class="cls-1" points="231.119 80.675 182.311 50.394 129.462 65.827 81.194 146.788 108.006 215.985 225.975 243.676 258.226 217.874 239.892 140.579 183.35 177.504 282.118 179.626 245.381 241.532 148.899 327.42 132.796 291.812 99.761 262.185 128.412 197.942 197.952 202.603 232.097 74.274 179.331 132.061 187.808 210.729 151.672 98.274 231.119 80.675"/>
  <polygon class="cls-1" points="234.153 82.74 185.615 49.705 132.765 60.729 79.921 142.304 100.289 214.048 223.762 245.042 259.167 223.192 244.109 138.11 176.631 177.612 284.143 175.89 251.751 235.655 149.819 329.682 135.106 293.498 98.149 266.527 123.943 197.046 195.438 211.39 235.665 70.804 178.581 126.321 190.583 218.157 146.173 99.31 234.153 82.74"/>
  <polygon class="cls-1" points="237.169 84.968 188.899 49.312 136.343 55.6 79.101 137.663 92.218 211.911 221.357 246.109 259.838 229.041 249.093 135.453 169.349 177.963 285.853 172.334 258.493 229.232 150.629 331.995 137.664 294.98 96.734 271.266 119.373 195.45 192.498 220.979 239.539 67.546 177.557 119.675 193.949 226.016 140.107 100.266 237.169 84.968"/>
  <polygon class="cls-1" points="240.171 87.351 192.147 49.237 140.179 50.448 78.789 132.868 83.781 209.584 218.77 246.818 260.165 235.472 254.933 132.58 161.492 178.56 287.2 169.008 265.639 222.223 151.306 334.381 140.473 296.213 95.535 276.48 114.726 193.053 189.08 231.406 243.762 64.58 176.195 112.031 197.983 234.342 133.436 101.127 240.171 87.351"/>
  <polygon class="cls-1" points="243.16 89.874 195.34 49.5 144.255 45.283 79.044 127.921 74.965 207.082 216.017 247.103 260.061 242.54 261.725 129.458 153.05 179.4 288.132 165.97 273.226 214.58 151.824 336.863 143.533 297.143 94.568 282.262 110.032 189.743 185.126 242.7 248.385 62 174.423 103.288 202.774 243.173 126.121 101.877 243.16 89.874"/>
  <polygon class="cls-1" points="246.14 92.524 198.46 50.126 148.543 40.114 79.93 122.82 65.755 204.429 213.123 246.889 259.427 250.305 269.573 126.057 144.014 180.474 288.588 163.285 281.298 206.254 152.156 339.474 146.845 297.704 93.851 288.72 105.33 185.4 180.57 254.886 253.466 59.911 172.157 93.337 208.417 252.551 118.12 102.501 246.14 92.524"/>
  <polygon class="cls-1" points="249.116 95.283 201.49 51.137 153.012 34.951 81.517 117.565 56.13 201.651 210.121 246.093 258.15 258.836 278.585 122.343 134.382 181.771 288.5 161.025 289.899 197.187 152.273 342.251 150.408 297.82 93.397 295.975 100.663 179.895 175.336 267.982 259.078 58.434 169.299 82.058 215.019 262.522 109.387 102.982 249.116 95.283"/>
  <polygon class="cls-1" points="252.096 98.131 204.414 52.56 157.621 29.804 83.88 112.15 46.068 198.786 207.056 244.619 256.101 268.206 288.881 118.281 124.154 183.271 287.795 159.272 299.083 187.317 152.143 345.241 154.221 297.397 93.217 304.167 96.084 173.088 169.339 282.001 265.3 57.708 165.739 69.319 222.696 273.137 99.873 103.305 252.096 98.131"/>
  <polygon class="cls-1" points="255.088 101.045 207.221 54.418 162.322 24.687 87.103 106.568 35.541 195.881 203.984 242.36 253.136 278.497 300.584 113.837 113.338 184.947 286.387 158.119 308.907 176.571 151.733 348.502 158.281 296.326 93.321 313.456 91.658 164.831 162.479 296.941 272.23 57.89 161.35 54.977 231.574 284.449 89.525 103.456 255.088 101.045"/>
  <polygon class="cls-1" points="258.101 103.999 209.898 56.738 167.058 19.612 91.276 100.807 24.512 192.994 200.976 239.198 249.09 289.799 313.826 108.975 101.949 186.766 284.184 157.669 319.433 164.869 151.01 352.104 162.586 294.48 93.712 324.022 87.459 154.967 154.646 312.793 279.98 59.158 155.988 38.875 241.793 296.517 78.286 103.42 258.101 103.999"/>
  <polygon class="cls-1" points="261.145 106.963 212.441 59.548 171.762 14.596 96.498 94.847 12.938 190.194 198.123 234.997 243.779 302.208 328.747 103.661 90.007 188.681 281.081 158.039 330.733 152.118 149.935 356.13 167.132 291.707 94.388 336.069 83.575 143.329 145.711 329.532 288.679 61.713 149.486 20.839 253.506 309.406 66.096 103.184 261.145 106.963"/>
  <polygon class="cls-1" points="264.231 109.902 214.846 62.874 176.354 9.658 102.88 88.666 .765 187.566 195.531 229.608 236.998 315.831 345.494 97.863 77.543 190.636 276.961 159.36 342.884 138.214 148.47 360.683 171.918 287.832 95.34 349.824 80.112 129.744 135.526 347.115 298.48 65.781 141.66 .683 266.881 323.184 52.887 102.736 264.231 109.902"/>
</svg>